HIERARCHY
ROOT Hips
{
	OFFSET 0.000000 0.000000 0.000000
	CHANNELS 6 Xposition Yposition Zposition Xrotation Yrotation Zrotation
	JOINT LeftUpLeg_virtual
	{
		OFFSET 0.000000 0.000000 0.000000
		CHANNELS 3 Xrotation Yrotation Zrotation
		JOINT LeftUpLeg
		{
			OFFSET 13.026900 -6.336304 -1.092800
			CHANNELS 3 Xrotation Yrotation Zrotation
			JOINT LeftLeg
			{
				OFFSET 0.524474 -46.096886 9.782700
				CHANNELS 3 Xrotation Yrotation Zrotation
				JOINT LeftFoot
				{
					OFFSET -0.524474 -53.427422 -12.948200
					CHANNELS 3 Xrotation Yrotation Zrotation
					JOINT LeftToeBase
					{
						OFFSET 0.192200 -14.009700 16.364100
						CHANNELS 3 Xrotation Yrotation Zrotation
						JOINT LeftToe_End
						{
							OFFSET -1.784700 -0.561700 9.474800
							CHANNELS 3 Xrotation Yrotation Zrotation
							End Site
							{
								OFFSET 0 0 0
							}
						}
					}
				}
			}
		}
	}
	JOINT RightUpLeg_virtual
	{
		OFFSET 0.000000 0.000000 0.000000
		CHANNELS 3 Xrotation Yrotation Zrotation
		JOINT RightUpLeg
		{
			OFFSET -12.883000 -6.336304 -1.092800
			CHANNELS 3 Xrotation Yrotation Zrotation
			JOINT RightLeg
			{
				OFFSET -0.524587 -46.096825 9.782800
				CHANNELS 3 Xrotation Yrotation Zrotation
				JOINT RightFoot
				{
					OFFSET 0.524587 -53.427383 -12.948300
					CHANNELS 3 Xrotation Yrotation Zrotation
					JOINT RightToeBase
					{
						OFFSET -0.192200 -14.009700 16.364100
						CHANNELS 3 Xrotation Yrotation Zrotation
						JOINT RightToe_End
						{
							OFFSET 1.784700 -0.561700 9.474800
							CHANNELS 3 Xrotation Yrotation Zrotation
							End Site
							{
								OFFSET 0 0 0
							}
						}
					}
				}
			}
		}
	}
	JOINT Spine_virtual
	{
		OFFSET 0.000000 0.000000 0.000000
		CHANNELS 3 Xrotation Yrotation Zrotation
		JOINT Spine
		{
			OFFSET 0.072000 7.257294 -0.789700
			CHANNELS 3 Xrotation Yrotation Zrotation
			JOINT Spine1
			{
				OFFSET 0.000000 12.508769 -0.658067
				CHANNELS 3 Xrotation Yrotation Zrotation
				JOINT Spine1_split
				{
					OFFSET 0.000000 12.508769 -0.658067
					CHANNELS 3 Xrotation Yrotation Zrotation
					JOINT Spine2
					{
						OFFSET 0.000000 12.508769 -0.658067
						CHANNELS 3 Xrotation Yrotation Zrotation
						JOINT Neck_virtual
						{
							OFFSET 0.000000 0.000000 0.000000
							CHANNELS 3 Xrotation Yrotation Zrotation
							JOINT Neck
							{
								OFFSET 0.000000 14.033295 7.520400
								CHANNELS 3 Xrotation Yrotation Zrotation
								JOINT Head
								{
									OFFSET 0.000000 8.198502 5.703100
									CHANNELS 3 Xrotation Yrotation Zrotation
									JOINT HeadTop_End
									{
										OFFSET 0.000000 17.760803 13.332701
										CHANNELS 3 Xrotation Yrotation Zrotation
										End Site
										{
											OFFSET 0 0 0
										}
									}
								}
							}
						}
						JOINT LeftShoulder_virtual
						{
							OFFSET 0.000000 0.000000 0.000000
							CHANNELS 3 Xrotation Yrotation Zrotation
							JOINT LeftShoulder
							{
								OFFSET 6.292450 5.785301 -0.669000
								CHANNELS 3 Xrotation Yrotation Zrotation
								JOINT LeftShoulder_split
								{
									OFFSET 6.292450 5.785301 -0.669000
									CHANNELS 3 Xrotation Yrotation Zrotation
									JOINT LeftArm
									{
										OFFSET 13.907140 -6.093903 1.965100
										CHANNELS 3 Xrotation Yrotation Zrotation
										JOINT LeftForeArm
										{
											OFFSET 34.140198 0.000000 0.000000
											CHANNELS 3 Xrotation Yrotation Zrotation
											JOINT LeftHand
											{
												OFFSET 40.960209 0.000000 0.000000
												CHANNELS 3 Xrotation Yrotation Zrotation
												End Site
												{
													OFFSET 0 0 0
												}
											}
										}
									}
								}
							}
						}
						JOINT RightShoulder_virtual
						{
							OFFSET 0.000000 0.000000 0.000000
							CHANNELS 3 Xrotation Yrotation Zrotation
							JOINT RightShoulder
							{
								OFFSET -6.292450 5.785301 -0.669000
								CHANNELS 3 Xrotation Yrotation Zrotation
								JOINT RightShoulder_split
								{
									OFFSET -6.292450 5.785301 -0.669000
									CHANNELS 3 Xrotation Yrotation Zrotation
									JOINT RightArm
									{
										OFFSET -13.907140 -6.093903 1.965100
										CHANNELS 3 Xrotation Yrotation Zrotation
										JOINT RightForeArm
										{
											OFFSET -34.140198 0.000000 0.000000
											CHANNELS 3 Xrotation Yrotation Zrotation
											JOINT RightHand
											{
												OFFSET -40.960209 0.000000 0.000000
												CHANNELS 3 Xrotation Yrotation Zrotation
												End Site
												{
													OFFSET 0 0 0
												}
											}
										}
									}
								}
							}
						}
					}
				}
			}
		}
	}
}
MOTION
Frames: 8
Frame Time: 0.03333333
0.303843 89.258591 0.730927 0.000000 0.000000 0.000000 11.722104 3.006992 -1.310316 -58.768184 0.541941 5.806829 75.318012 7.396514 -0.707537 -27.104976 5.220686 -5.752244 -0.000010 0.000002 -0.000002 0.000000 0.000000 0.000000 11.722104 3.006992 -1.310316 -56.233200 -13.877857 -7.341985 74.381341 -8.018284 -4.541178 -30.700280 -9.664106 4.410814 0.000003 -0.000005 -0.000002 0.000000 0.000000 0.000000 11.722104 3.006992 -1.310316 9.926690 1.488755 1.214816 7.645332 0.753229 0.067568 0.000000 0.000000 0.000000 0.000000 0.000000 0.000000 7.636951 0.840686 0.048856 -11.425861 -1.903123 7.327010 -27.420394 2.052766 -6.271737 0.000000 0.000000 0.000000 7.636951 0.840686 0.048856 3.557354 -26.212550 4.772374 0.000000 0.000000 0.000000 -62.403279 -21.804182 -66.739001 179.999978 -70.549557 179.999991 0.000000 0.000000 0.000000 7.636951 0.840686 0.048856 1.209607 13.189589 10.689362 0.000000 0.000000 0.000000 -58.736799 43.251200 51.659859 -179.999964 73.628148 179.999991 0.000000 0.000000 0.000000 
0.309591 89.265221 0.740150 0.000000 0.000000 0.000000 11.765375 2.996978 -1.327378 -58.804794 0.513828 5.854211 75.322875 7.384546 -0.768958 -27.093679 5.230739 -5.729543 -0.000010 0.000003 -0.000002 0.000000 0.000000 0.000000 11.765375 2.996978 -1.327378 -56.260347 -13.891726 -7.319939 74.360973 -8.031726 -4.556229 -30.692302 -9.661706 4.424124 0.000003 -0.000005 -0.000002 0.000000 0.000000 0.000000 11.765375 2.996978 -1.327378 9.909496 1.508579 1.200906 7.633178 0.769256 0.058698 0.000000 0.000000 0.000000 0.000000 0.000000 0.000000 7.624625 0.856615 0.039882 -11.444189 -1.923866 7.361598 -27.436178 1.999900 -6.276385 0.000000 0.000000 0.000000 7.624625 0.856615 0.039882 3.557353 -26.212553 4.772373 0.000000 0.000000 0.000000 -62.439554 -21.913824 -66.819549 179.999978 -70.454207 179.999978 0.000000 0.000000 0.000000 7.624625 0.856615 0.039882 1.207724 13.175775 10.734727 0.000000 0.000000 0.000000 -58.706869 43.206131 51.589655 179.999950 73.392773 -179.999950 0.000000 0.000000 0.000000 
0.319772 89.265152 0.753525 0.000000 0.000000 0.000000 11.801162 2.982172 -1.356764 -58.841964 0.486047 5.903411 75.343065 7.364907 -0.822634 -27.086201 5.271897 -5.698228 -0.000010 0.000006 -0.000002 0.000000 0.000000 0.000000 11.801162 2.982172 -1.356764 -56.278580 -13.914251 -7.300627 74.348002 -8.043367 -4.561749 -30.689990 -9.652222 4.438151 0.000003 -0.000007 -0.000002 0.000000 0.000000 0.000000 11.801162 2.982172 -1.356764 9.891582 1.540374 1.191401 7.619999 0.793059 0.049375 0.000000 0.000000 0.000000 0.000000 0.000000 0.000000 7.611131 0.880647 0.030305 -11.470301 -1.969856 7.427052 -27.400895 1.869801 -6.289239 0.000000 0.000000 0.000000 7.611131 0.880647 0.030305 3.557355 -26.212543 4.772374 0.000000 0.000000 0.000000 -62.514167 -22.042328 -66.916039 -179.999978 -70.391171 -179.999978 0.000000 0.000000 0.000000 7.611131 0.880647 0.030305 1.205948 13.146150 10.801878 0.000000 0.000000 0.000000 -58.722695 43.168585 51.544094 179.999896 73.190613 -179.999896 0.000000 0.000000 0.000000 
0.337097 89.266251 0.770443 0.000000 0.000000 0.000000 11.838285 2.959997 -1.384272 -58.874885 0.494299 5.937455 75.354786 7.347183 -0.835143 -27.094694 5.306094 -5.669361 -0.000010 0.000002 -0.000002 0.000000 0.000000 0.000000 11.838285 2.959997 -1.384272 -56.296782 -13.929869 -7.298517 74.335339 -8.057975 -4.553706 -30.687514 -9.622245 4.457422 0.000003 -0.000007 -0.000002 0.000000 0.000000 0.000000 11.838285 2.959997 -1.384272 9.875056 1.578625 1.179697 7.606525 0.822609 0.040046 0.000000 0.000000 0.000000 0.000000 0.000000 0.000000 7.597283 0.910607 0.020586 -11.512457 -2.020958 7.497549 -27.383005 1.723010 -6.301876 0.000000 0.000000 0.000000 7.597283 0.910607 0.020586 3.557353 -26.212553 4.772374 0.000000 0.000000 0.000000 -62.621005 -22.195914 -67.031251 179.999950 -70.314059 179.999923 0.000000 0.000000 0.000000 7.597283 0.910607 0.020586 1.205919 13.106005 10.860523 0.000000 0.000000 0.000000 -58.781926 43.109094 51.531240 179.999991 72.944460 -179.999991 0.000000 0.000000 0.000000 
0.360789 89.273460 0.789589 0.000000 0.000000 0.000000 11.875782 2.931232 -1.402258 -58.893156 0.520525 5.955973 75.350278 7.337319 -0.828194 -27.117905 5.319559 -5.647441 -0.000010 0.000001 -0.000002 0.000000 0.000000 0.000000 11.875782 2.931232 -1.402258 -56.313042 -13.932044 -7.308490 74.317069 -8.075297 -4.540730 -30.680841 -9.579463 4.483285 0.000003 -0.000005 -0.000002 0.000000 0.000000 0.000000 11.875782 2.931232 -1.402258 9.859413 1.611633 1.165289 7.592698 0.849622 0.032109 0.000000 0.000000 0.000000 0.000000 0.000000 0.000000 7.583049 0.938222 0.012215 -11.542881 -2.042863 7.545319 -27.447228 1.677693 -6.294208 0.000000 0.000000 0.000000 7.583049 0.938222 0.012215 3.557354 -26.212553 4.772374 0.000000 0.000000 0.000000 -62.695980 -22.305530 -67.112039 -179.999978 -70.240354 -179.999978 0.000000 0.000000 0.000000 7.583049 0.938222 0.012215 1.207701 13.049740 10.917856 0.000000 0.000000 0.000000 -58.840331 43.111020 51.540170 179.999978 72.756165 179.999991 0.000000 0.000000 0.000000 
0.386615 89.282860 0.810619 0.000000 0.000000 0.000000 11.898708 2.902472 -1.409685 -58.886462 0.525765 5.971705 75.343748 7.333035 -0.847052 -27.143752 5.318917 -5.629696 -0.000010 0.000001 -0.000002 0.000000 0.000000 0.000000 11.898708 2.902472 -1.409685 -56.313349 -13.921622 -7.309440 74.298224 -8.089020 -4.540670 -30.673983 -9.554864 4.512804 0.000003 -0.000005 -0.000002 0.000000 0.000000 0.000000 11.898708 2.902472 -1.409685 9.844384 1.634262 1.150559 7.579136 0.869097 0.024293 0.000000 0.000000 0.000000 0.000000 0.000000 0.000000 7.569097 0.958445 0.004006 -11.541543 -2.026948 7.561945 -27.520338 1.765035 -6.259368 0.000000 0.000000 0.000000 7.569097 0.958445 0.004006 3.557360 -26.212547 4.772374 0.000000 0.000000 0.000000 -62.712270 -22.301471 -67.112230 179.999978 -70.298260 179.999978 0.000000 0.000000 0.000000 7.569097 0.958445 0.004006 1.209564 12.989895 10.980341 0.000000 0.000000 0.000000 -58.873232 43.221287 51.547602 179.999937 72.841331 -179.999950 0.000000 0.000000 0.000000 
0.401312 89.289803 0.822845 0.000000 0.000000 0.000000 11.874520 2.890945 -1.397385 -58.836971 0.521146 5.959565 75.335887 7.340262 -0.860144 -27.159803 5.312325 -5.629234 -0.000010 0.000004 -0.000002 0.000000 0.000000 0.000000 11.874520 2.890945 -1.397385 -56.277214 -13.901739 -7.301344 74.291496 -8.077675 -4.555030 -30.674059 -9.575984 4.524040 0.000003 -0.000007 -0.000002 0.000000 0.000000 0.000000 11.874520 2.890945 -1.397385 9.846121 1.625857 1.150824 7.578355 0.862522 0.022663 0.000000 0.000000 0.000000 0.000000 0.000000 0.000000 7.568291 0.952671 0.002222 -11.512208 -1.989691 7.537600 -27.524581 1.896779 -6.198474 0.000000 0.000000 0.000000 7.568291 0.952671 0.002222 3.557353 -26.212545 4.772374 0.000000 0.000000 0.000000 -62.651413 -22.141648 -67.000222 -179.999868 -70.519873 -179.999882 0.000000 0.000000 0.000000 7.568291 0.952671 0.002222 1.208434 12.980028 11.008849 0.000000 0.000000 0.000000 -58.874776 43.403953 51.555600 -179.999841 73.272630 179.999855 0.000000 0.000000 0.000000 
0.413163 89.299545 0.833801 0.000000 0.000000 0.000000 11.866520 2.890196 -1.383509 -58.805081 0.531594 5.946465 75.319904 7.350312 -0.864759 -27.169555 5.294066 -5.629491 -0.000010 0.000001 -0.000002 0.000000 0.000000 0.000000 11.866520 2.890196 -1.383509 -56.258742 -13.898182 -7.294704 74.279031 -8.064864 -4.584499 -30.673089 -9.605064 4.532730 0.000003 -0.000007 -0.000002 0.000000 0.000000 0.000000 11.866520 2.890196 -1.383509 9.843629 1.614235 1.154619 7.574568 0.852035 0.020876 0.000000 0.000000 0.000000 0.000000 0.000000 0.000000 7.564529 0.942706 0.000372 -11.507440 -1.973315 7.511921 -27.523173 1.933517 -6.160803 0.000000 0.000000 0.000000 7.564529 0.942706 0.000372 3.557355 -26.212547 4.772374 0.000000 0.000000 0.000000 -62.601115 -22.051489 -66.935854 -179.999909 -70.661708 -179.999923 0.000000 0.000000 0.000000 7.564529 0.942706 0.000372 1.206445 12.999546 11.007920 0.000000 0.000000 0.000000 -58.848664 43.489030 51.518051 179.999868 73.511694 -179.999841 0.000000 0.000000 0.000000 
